<?xml version="1.0" encoding="utf-8"?>
<!-- Generator: Adobe Illustrator 19.0.0, SVG Export Plug-In . SVG Version: 6.00 Build 0)  -->
<svg version="1.1" id="Layer_1" xmlns="http://www.w3.org/2000/svg" xmlns:xlink="http://www.w3.org/1999/xlink" x="0px" y="0px"
	 viewBox="0 0 500 500" style="enable-background:new 0 0 500 500;" xml:space="preserve">
<style type="text/css">
	.st0{fill:#003B57;}
	.st1{fill:#0F80CC;}
	.st2{fill:url(#XMLID_30_);}
</style>
<g id="XMLID_1_">
	<path id="XMLID_12_" class="st0" d="M206.2,248.9c-4.9,0-8.8,1.4-11.9,4.3c-3,2.9-4.6,6.7-4.6,11.3c0,2.4,0.4,4.6,1.1,6.6
		c0.8,2,1.9,3.9,3.5,5.5c1.6,1.7,4.7,4,9.4,6.9c5.8,3.5,9.5,6.4,11.3,8.6c1.8,2.2,2.7,4.6,2.7,7c0,3.3-1.1,5.9-3.3,7.8
		c-2.2,2-5.2,2.9-8.8,2.9c-3.9,0-7.2-1.4-10.1-4.1c-2.9-2.7-4.3-6.3-4.4-10.8h-1.8v16.3h1.8c0.5-1.5,1.3-2.3,2.3-2.3
		c0.5,0,1.6,0.3,3.3,0.9c4.2,1.5,7.7,2.2,10.5,2.2c4.7,0,8.7-1.7,12.1-5c3.4-3.4,5-7.4,5-12.1c0-3.7-1.1-6.9-3.3-9.8
		c-2.2-2.8-6.5-6.2-12.8-10c-5.5-3.3-9-6-10.7-8.1c-1.6-2.1-2.5-4.4-2.5-6.9c0-2.7,1-4.9,3-6.6c2-1.6,4.6-2.5,7.8-2.5
		c3.7,0,6.7,1.1,9.1,3.3c2.4,2.2,3.8,5.2,4.2,9.1h1.8v-14.1h-1.7c-0.2,0.7-0.4,1.2-0.6,1.4c-0.2,0.2-0.5,0.3-1,0.3
		c-0.6,0-1.6-0.2-3.1-0.7C211.8,249.5,208.9,248.9,206.2,248.9z M265,248.9c-5.9,0-11.3,1.4-16.2,4.2c-4.9,2.8-8.7,6.7-11.6,11.6
		c-2.8,4.9-4.3,10.2-4.3,15.8c0,7.5,2.5,14.2,7.4,20c5,5.9,10.9,9.5,17.8,10.9c1.6,0.8,3.8,2.9,6.8,6.4c3.3,3.9,6.1,6.7,8.4,8.3
		c2.3,1.7,4.8,2.9,7.4,3.7c2.6,0.8,5.5,1.2,8.6,1.2c3.7,0,7.1-0.6,10-2l-0.7-1.6c-1.7,0.6-3.5,0.9-5.5,0.9c-2.6,0-5.2-0.9-7.9-2.6
		c-2.6-1.7-5.9-5-9.9-9.9c-1.8-2.3-3.1-3.8-3.8-4.4c7.5-1.5,13.7-5.1,18.6-11c4.8-5.8,7.3-12.5,7.3-20c0-8.9-3.2-16.3-9.4-22.4
		C281.8,252,274.1,248.9,265,248.9z M301.6,248.9l0.1,1.9c3.9,0,6.2,1.2,6.7,3.5c0.2,0.8,0.3,2.4,0.3,4.6l0,42.5
		c0,3.2-0.5,5.2-1.4,6.1c-0.9,0.9-2.3,1.4-4.5,1.6l-0.1,1.9H342l1-9.6h-1.8c-0.5,2.6-1.7,4.5-3.6,5.6c-1.9,1.1-5.2,1.6-10,1.6H324
		c-4.3,0-6.8-1.6-7.5-4.7c-0.1-0.6-0.2-1.3-0.2-2l0.2-43c0-3.2,0.4-5.3,1.2-6.3c0.8-1,2.4-1.6,4.5-1.8l-0.1-1.9H301.6L301.6,248.9z
		 M265.6,251.2c6.7,0,12.1,2.6,16.4,7.9c4.2,5.3,6.3,12.6,6.3,21.8c0,8.7-2.1,15.7-6.4,21c-4.2,5.3-9.9,7.9-16.9,7.9
		c-6.7,0-12.2-2.7-16.4-8.1c-4.2-5.4-6.3-12.5-6.3-21.2c0-8.9,2.1-16,6.3-21.4C252.8,253.9,258.5,251.2,265.6,251.2z M356.1,260.4
		c-1,0-1.7,0.3-2.2,1c-0.6,0.7-0.7,1.4-0.5,2.4c0.2,0.9,0.7,1.7,1.5,2.4c0.8,0.7,1.7,1,2.7,1c0.9,0,1.6-0.4,2.1-1
		c0.5-0.7,0.7-1.5,0.5-2.4c-0.2-1-0.7-1.7-1.5-2.4C357.9,260.7,357,260.4,356.1,260.4z M382,266.9c-1.6,6.3-5.2,9.7-10.6,10.2
		l0.1,1.8h6.3l-0.1,21.2c0,3.6,0.1,6.1,0.4,7.3c0.6,2.9,2.5,4.4,5.8,4.4c4.7,0,9.5-2.8,14.7-8.5l-1.5-1.3c-3.7,3.7-7,5.6-9.8,5.6
		c-1.8,0-2.8-1-3.2-3c-0.1-0.5-0.2-1-0.2-1.7l0.1-24.1h9.7l-0.1-2.9h-9.6v-9.1H382L382,266.9z M419.4,274.9c-5.4,0-9.8,2.6-13.2,7.8
		c-3.4,5.2-4.5,11-3.1,17.4c0.8,3.7,2.4,6.6,4.8,8.7c2.4,2,5.4,3.1,9.1,3.1c3.4,0,8.1-0.9,10.1-2.6c2-1.7,3.8-4.5,5.5-8.4l-1.4-1.4
		c-2.7,5-8.2,7.5-12.3,7.5c-5.7,0-9.1-3.1-10.4-9.3c-0.2-0.8-0.3-1.6-0.4-2.5c6.7-1.1,11.8-2.9,15.3-5.7c3.4-2.7,6.9-5.6,6.2-8.7
		c-0.4-1.8-1.3-3.2-2.8-4.3C425.4,275.5,421.5,274.9,419.4,274.9z M360.3,275.1l-11.7,2.7v2.1l4-0.5c2,0,3.1,0.9,3.5,2.6
		c0.1,0.6,0.2,1.4,0.2,2.5l-0.1,19.1c0,2.6-0.3,4.2-0.9,4.6c-0.6,0.5-2.2,0.7-4.7,0.7l-0.1,1.8H369l0-1.8c-2.6,0-4.2-0.2-5-0.6
		c-0.7-0.4-1.2-1.1-1.5-2.2c-0.2-0.8-0.2-2.2-0.3-4l0.1-26.9H360.3L360.3,275.1z M416.5,278.7c1.1,0,2.2,0.4,3.3,1.3
		c1.1,0.9,1.7,1.8,2,2.8c1.1,5.1-3.4,8.6-13.6,10.5c-0.3-3.7,0.4-7.1,2-10.1C411.8,280.2,413.9,278.7,416.5,278.7z"/>
	<path id="XMLID_13_" class="st1" d="M180.1,176.1H79.7c-6.7,0-12.2,5.5-12.2,12.2V299c0,6.7,5.5,12.2,12.2,12.2h66.1
		C145.1,278.4,156.3,214.5,180.1,176.1z"/>
	
		<linearGradient id="XMLID_30_" gradientUnits="userSpaceOnUse" x1="1.1337" y1="-0.3259" x2="1.8469" y2="-0.3259" gradientTransform="matrix(0 144.1608 -136.5305 0 79.2703 18.5056)">
		<stop  offset="0" style="stop-color:#97D9F6"/>
		<stop  offset="0.9202" style="stop-color:#0F80CC"/>
		<stop  offset="1" style="stop-color:#0F80CC"/>
	</linearGradient>
	<path id="XMLID_14_" class="st2" d="M176.5,179.7H79.7c-4.8,0-8.7,3.9-8.7,8.7v102.6c21.9-8.4,54.8-15.7,77.5-15.3
		C153.2,251.7,166.6,204.9,176.5,179.7z"/>
	<path id="XMLID_15_" class="st0" d="M203.5,172.5c-6.9-6.1-15.2-3.7-23.4,3.6c-1.2,1.1-2.4,2.3-3.6,3.6
		c-14.1,14.9-27.1,42.5-31.1,63.6c1.6,3.2,2.8,7.3,3.6,10.4c0.2,0.8,0.4,1.6,0.5,2.2c0.4,1.5,0.5,2.5,0.5,2.5s-0.1-0.5-0.6-2
		c-0.1-0.3-0.2-0.6-0.3-1c-0.1-0.2-0.1-0.3-0.2-0.5c-0.9-2.1-3.5-6.6-4.6-8.6c-1,2.8-1.8,5.4-2.5,7.8c3.2,5.9,5.2,16,5.2,16
		s-0.2-0.7-1-2.9c-0.7-2-4.3-8.3-5.1-9.8c-1.5,5.4-2,9-1.5,9.9c1,1.7,2,4.6,2.8,7.9c1.9,7.3,3.2,16.3,3.2,16.3s0,0.6,0.1,1.5
		c-0.3,6.2-0.1,12.5,0.4,18.3c0.6,7.6,1.8,14.2,3.3,17.7l1-0.6c-2.2-6.9-3.1-16-2.7-26.4c0.6-16,4.3-35.3,11.1-55.3
		c11.5-30.3,27.4-54.7,42-66.3c-13.3,12-31.3,50.8-36.7,65.2c-6,16.1-10.3,31.2-12.9,45.7c4.4-13.6,18.8-19.4,18.8-19.4
		s7-8.7,15.3-21.1c-4.9,1.1-13,3.1-15.7,4.2c-4,1.7-5.1,2.3-5.1,2.3s13-7.9,24.1-11.5C203.6,221.7,220.3,187.4,203.5,172.5"/>
</g>
</svg>
